<mxfile host="app.diagrams.net" modified="2023-11-14T12:11:13.077Z" agent="Mozilla/5.0 (Windows NT 10.0; Win64; x64; rv:109.0) Gecko/20100101 Firefox/119.0" etag="b23V9-Kq8Tu34dwmnZsI" version="22.1.0" type="device">
  <diagram name="Page-1" id="NFqRwUSZTkVEqR8-elJL">
    <mxGraphModel dx="545" dy="344" grid="1" gridSize="10" guides="1" tooltips="1" connect="1" arrows="1" fold="1" page="1" pageScale="1" pageWidth="827" pageHeight="1169" math="0" shadow="0">
      <root>
        <mxCell id="0" />
        <mxCell id="1" parent="0" />
        <mxCell id="2DZ0CihC3c74k-1YnKCK-1" value="&lt;b&gt;scroll_time_module&lt;/b&gt;" style="rounded=0;whiteSpace=wrap;html=1;fontColor=default;fillColor=none;" vertex="1" parent="1">
          <mxGeometry x="60" y="10" width="130" height="40" as="geometry" />
        </mxCell>
        <mxCell id="2DZ0CihC3c74k-1YnKCK-2" value="clk" style="endArrow=classic;html=1;rounded=0;labelPosition=left;verticalLabelPosition=top;align=right;verticalAlign=bottom;labelBackgroundColor=none;fontStyle=1" edge="1" parent="1">
          <mxGeometry width="50" height="50" relative="1" as="geometry">
            <mxPoint x="20" y="20" as="sourcePoint" />
            <mxPoint x="60" y="20" as="targetPoint" />
          </mxGeometry>
        </mxCell>
        <mxCell id="2DZ0CihC3c74k-1YnKCK-4" value="addr" style="endArrow=classic;html=1;rounded=0;labelPosition=center;verticalLabelPosition=top;align=center;verticalAlign=bottom;labelBackgroundColor=none;fontStyle=1" edge="1" parent="1">
          <mxGeometry width="50" height="50" relative="1" as="geometry">
            <mxPoint x="190" y="29.710000000000008" as="sourcePoint" />
            <mxPoint x="230" y="30" as="targetPoint" />
          </mxGeometry>
        </mxCell>
        <mxCell id="2DZ0CihC3c74k-1YnKCK-5" value="reset" style="endArrow=classic;html=1;rounded=0;labelPosition=left;verticalLabelPosition=top;align=right;verticalAlign=bottom;labelBackgroundColor=none;fontStyle=1" edge="1" parent="1">
          <mxGeometry width="50" height="50" relative="1" as="geometry">
            <mxPoint x="20" y="40" as="sourcePoint" />
            <mxPoint x="60" y="40" as="targetPoint" />
          </mxGeometry>
        </mxCell>
      </root>
    </mxGraphModel>
  </diagram>
</mxfile>
